<?xml version="1.0" encoding="UTF-8" standalone="no"?>
<svg
   xmlns:dc="http://purl.org/dc/elements/1.1/"
   xmlns:cc="http://creativecommons.org/ns#"
   xmlns:rdf="http://www.w3.org/1999/02/22-rdf-syntax-ns#"
   xmlns:svg="http://www.w3.org/2000/svg"
   xmlns="http://www.w3.org/2000/svg"
   xmlns:sodipodi="http://sodipodi.sourceforge.net/DTD/sodipodi-0.dtd"
   xmlns:inkscape="http://www.inkscape.org/namespaces/inkscape"
   width="1920"
   height="350"
   viewBox="0 0 507.99999 92.604199"
   version="1.1"
   id="svg8"
   sodipodi:docname="logo.svg"
   inkscape:version="1.0.2 (394de47547, 2021-03-26)">
  <defs
     id="defs2" />
  <sodipodi:namedview
     id="base"
     pagecolor="#ffffff"
     bordercolor="#666666"
     borderopacity="1.0"
     inkscape:pageopacity="0.0"
     inkscape:pageshadow="2"
     inkscape:zoom="0.31083253"
     inkscape:cx="1279.678"
     inkscape:cy="892.07028"
     inkscape:document-units="mm"
     inkscape:current-layer="layer1"
     inkscape:document-rotation="0"
     showgrid="false"
     units="px"
     inkscape:pagecheckerboard="true"
     inkscape:window-width="1366"
     inkscape:window-height="713"
     inkscape:window-x="0"
     inkscape:window-y="27"
     inkscape:window-maximized="1" />
  <metadata
     id="metadata5">
    <rdf:RDF>
      <cc:Work
         rdf:about="">
        <dc:format>image/svg+xml</dc:format>
        <dc:type
           rdf:resource="http://purl.org/dc/dcmitype/StillImage" />
        <dc:title />
      </cc:Work>
    </rdf:RDF>
  </metadata>
  <g
     inkscape:label="Layer 1"
     inkscape:groupmode="layer"
     id="layer1">
    <g
       id="g906"
       transform="translate(0,-96.572923)">
      <text
         xml:space="preserve"
         style="font-style:normal;font-weight:normal;font-size:8.20286px;line-height:1.25;font-family:sans-serif;fill:#000000;fill-opacity:1;stroke:none;stroke-width:0.205071"
         x="151.62048"
         y="166.28435"
         id="text12"
         inkscape:export-filename="/home/matheus/Documents/matheus/joiceclub.github.io/images/logo.png"
         inkscape:export-xdpi="145.8436"
         inkscape:export-ydpi="145.8436"><tspan
           sodipodi:role="line"
           id="tspan10"
           x="151.62048"
           y="166.28435"
           style="font-style:normal;font-variant:normal;font-weight:normal;font-stretch:normal;font-size:68.0834px;font-family:'Hello Valentica';-inkscape-font-specification:'Hello Valentica, Normal';font-variant-ligatures:normal;font-variant-caps:normal;font-variant-numeric:normal;font-variant-east-asian:normal;fill:#393e46;fill-opacity:1;stroke-width:0.205071">Clube da Joice</tspan></text>
      <path
         style="fill:#cd2423;fill-opacity:1;stroke-width:0.327946"
         d="m 52.592273,165.32886 c -6.110987,-0.89361 -9.362671,-2.42805 -13.117859,-6.19016 -4.528364,-4.53672 -6.521044,-9.20606 -8.503164,-19.92497 l -0.772714,-4.17872 -1.667201,-1.82416 c -1.898135,-2.07687 -2.497251,-3.7377 -2.242214,-6.21575 0.231881,-2.25304 0.789889,-3.32248 2.044157,-3.91767 0.61123,-0.29005 3.77464,-0.79982 7.415349,-1.19499 17.268763,-1.87429 33.038075,1.38204 41.037304,8.47412 l 1.57204,1.39376 h 5.010872 5.010873 l 0.963204,-1.01658 c 2.174035,-2.2945 8.117576,-5.50375 12.06476,-6.51443 1.28935,-0.33014 3.15593,-0.8306 4.14796,-1.11212 2.98707,-0.84769 8.39304,-1.52928 13.77375,-1.73659 5.95275,-0.22935 16.99123,0.8097 19.02091,1.79042 1.35237,0.65344 1.92149,1.99147 1.94917,4.58249 0.0236,2.21448 -0.59068,3.65771 -2.42584,5.69886 -0.94491,1.05096 -1.54498,2.06618 -1.67938,2.84116 -2.31248,13.33536 -4.18396,18.23654 -8.6399,22.6268 -2.60314,2.56478 -5.24021,4.37712 -7.5037,5.15696 -3.10207,1.06875 -6.74358,1.55357 -10.2258,1.36146 -7.71511,-0.42568 -12.878999,-2.2633 -16.981862,-6.04316 -1.688062,-1.55516 -2.39368,-2.56198 -3.968667,-5.66285 -1.053548,-2.07426 -2.53458,-5.63763 -3.291174,-7.91859 -1.34942,-4.06822 -1.913065,-4.89499 -2.902403,-4.25722 -0.175557,0.11316 -0.859581,1.90289 -1.520046,3.97715 -0.660474,2.07427 -2.033726,5.46851 -3.051671,7.54278 -1.54567,3.14957 -2.233742,4.15105 -4.173339,6.0742 -2.784809,2.76119 -6.520599,4.7395 -10.521179,5.57152 -2.58447,0.53752 -8.901062,0.89721 -10.822236,0.61628 z m 7.289239,-4.71244 c 5.581677,-0.79682 10.072473,-3.60382 13.261353,-8.28912 2.672585,-3.92671 4.987128,-11.99372 4.065875,-14.17099 -1.715222,-4.05371 -10.573769,-8.99008 -19.533286,-10.88479 -4.539792,-0.96003 -15.514957,-1.43748 -19.047682,-0.82861 -1.157677,0.19953 -3.248585,0.45488 -4.646462,0.56744 -2.444918,0.1969 -2.541585,0.23618 -2.541585,1.03258 0,0.53209 0.567721,1.44906 1.588955,2.56647 1.766462,1.93277 2.121388,2.93019 2.681597,7.53588 0.885945,7.28369 2.231342,11.29184 5.045267,15.03066 3.295079,4.37814 7.589243,6.96218 12.836061,7.72418 2.023481,0.29386 2.345983,0.27931 6.289907,-0.2837 z m 55.478748,-0.21008 c 4.95718,-1.10002 9.86299,-5.16587 12.41703,-10.291 1.60278,-3.21625 2.05302,-4.83291 3.02714,-10.86941 0.98634,-6.11216 1.16099,-6.64454 2.77658,-8.4636 0.78753,-0.88672 1.53336,-1.93197 1.6574,-2.3228 0.42679,-1.34471 0.36041,-1.36016 -9.67802,-2.25385 -4.02904,-0.35869 -11.92164,0.11131 -16.17472,0.96322 -7.04809,1.41176 -14.064634,4.66748 -17.650643,8.19005 -1.225994,1.20428 -2.308313,2.58151 -2.439489,3.10416 -0.481516,1.91851 1.603795,9.53791 3.533415,12.91053 1.47079,2.57069 4.53858,5.6968 6.731425,6.85939 2.219212,1.17659 5.678382,2.26841 8.454872,2.66861 2.22676,0.32095 4.29519,0.18147 7.34501,-0.4953 z"
         id="path893"
         inkscape:export-filename="/home/matheus/Documents/matheus/joiceclub.github.io/images/logo.png"
         inkscape:export-xdpi="145"
         inkscape:export-ydpi="145" />
    </g>
  </g>
</svg>
